HIERARCHY
ROOT Pelvis
{
	OFFSET 0.000000 0.000000 0.000000
	CHANNELS 6 Xposition Yposition Zposition Zrotation Yrotation Xrotation 
	JOINT Left_hip
	{
		OFFSET 0.076090 -0.089427 -0.010735
		CHANNELS 3 Zrotation Yrotation Xrotation
		JOINT Left_knee
		{
			OFFSET 0.030200 -0.359518 -0.003501
			CHANNELS 3 Zrotation Yrotation Xrotation
			JOINT Left_ankle
			{
				OFFSET -0.011005 -0.371022 -0.045888
				CHANNELS 3 Zrotation Yrotation Xrotation
				JOINT Left_foot
				{
					OFFSET 0.023930 -0.052103 0.111084
					CHANNELS 3 Zrotation Yrotation Xrotation
					End Site
					{
						OFFSET 0.000000 0.000000 0.000000
					}
				}
			}
		}
	}
	JOINT Right_hip
	{
		OFFSET -0.073836 -0.088112 -0.007709
		CHANNELS 3 Zrotation Yrotation Xrotation
		JOINT Right_knee
		{
			OFFSET -0.035715 -0.367809 -0.006536
			CHANNELS 3 Zrotation Yrotation Xrotation
			JOINT Right_ankle
			{
				OFFSET 0.013718 -0.371958 -0.043815
				CHANNELS 3 Zrotation Yrotation Xrotation
				JOINT Right_foot
				{
					OFFSET -0.021936 -0.046387 0.114542
					CHANNELS 3 Zrotation Yrotation Xrotation
					End Site
					{
						OFFSET 0.000000 0.000000 0.000000
					}
				}
			}
		}
	}
	JOINT Spine1
	{
		OFFSET -0.001865 0.102064 -0.019455
		CHANNELS 3 Zrotation Yrotation Xrotation
		JOINT Spine2
		{
			OFFSET 0.003082 0.129260 -0.001938
			CHANNELS 3 Zrotation Yrotation Xrotation
			JOINT Spine3
			{
				OFFSET 0.001104 0.048093 0.026561
				CHANNELS 3 Zrotation Yrotation Xrotation
				JOINT Neck
				{
					OFFSET -0.002010 0.204222 -0.047183
					CHANNELS 3 Zrotation Yrotation Xrotation
					JOINT Head
					{
						OFFSET 0.005050 0.063649 0.048489
						CHANNELS 3 Zrotation Yrotation Xrotation
						End Site
						{
							OFFSET 0.000000 0.000000 0.000000
						}
					}
				}
				JOINT Left_collar
				{
					OFFSET 0.072979 0.114065 -0.031633
					CHANNELS 3 Zrotation Yrotation Xrotation
					JOINT Left_shoulder
					{
						OFFSET 0.083419 0.032092 -0.006530
						CHANNELS 3 Zrotation Yrotation Xrotation
						JOINT Left_elbow
						{
							OFFSET 0.239393 -0.012014 -0.025060
							CHANNELS 3 Zrotation Yrotation Xrotation
							JOINT Left_wrist
							{
								OFFSET 0.227297 0.008116 0.000384
								CHANNELS 3 Zrotation Yrotation Xrotation
								JOINT Left_palm
								{
									OFFSET 0.074607 -0.009248 -0.012277
									CHANNELS 3 Zrotation Yrotation Xrotation
									End Site
									{
										OFFSET 0.000000 0.000000 0.000000
									}
								}
							}
						}
					}
				}
				JOINT Right_collar
				{
					OFFSET -0.074980 0.111880 -0.037894
					CHANNELS 3 Zrotation Yrotation Xrotation
					JOINT Right_shoulder
					{
						OFFSET -0.087565 0.034353 -0.009323
						CHANNELS 3 Zrotation Yrotation Xrotation
						JOINT Right_elbow
						{
							OFFSET -0.236838 -0.013719 -0.019794
							CHANNELS 3 Zrotation Yrotation Xrotation
							JOINT Right_wrist
							{
								OFFSET -0.235053 0.006433 -0.003853
								CHANNELS 3 Zrotation Yrotation Xrotation
								JOINT Right_palm
								{
									OFFSET -0.075499 -0.006894 -0.009792
									CHANNELS 3 Zrotation Yrotation Xrotation
									End Site
									{
										OFFSET 0.000000 0.000000 0.000000
									}
								}
							}
						}
					}
				}
			}
		}
	}
}
MOTION
Frames: 14
Frame Time: 0.100000
0.130996 0.005972 -0.036106 171.417456 39.480742 -14.367418 1.316807 -1.449539 3.735517 -1.791145 -6.495778 -4.581728 -7.604929 4.551529 -2.941483 13.498170 7.687188 -7.646490 0.599553 1.409825 2.012146 3.596860 -1.116102 -2.755369 7.325362 -0.918279 -4.874047 -10.301668 -8.231912 4.495091 4.292103 -1.009348 2.802216 1.471017 -1.410514 2.769362 2.350621 -1.834222 -0.281422 4.982027 -24.514320 -10.717415 3.055228 -18.814274 -9.750338 -16.033412 10.300025 1.334825 -68.456919 -1.291514 15.071306 121.991333 -64.112007 -98.534700 -4.297490 -8.789032 -47.259744 -12.179867 2.201189 -10.005288 1.550277 1.422856 -8.828417 39.179534 23.032319 -4.343258 -102.339139 27.491552 -107.303739 -4.396005 5.330224 -74.181865 10.275416 0.439677 0.858065 
0.129614 0.005690 -0.034452 172.227481 37.106188 -13.294431 1.180845 -0.796397 3.687504 -1.896713 -5.185894 -4.714510 -7.626188 5.297515 -3.189751 13.633788 6.947196 -7.710597 0.408020 1.986373 1.442921 3.627324 0.100874 -2.890016 8.108361 -0.504960 -4.703961 -11.386547 -7.729319 4.819247 4.872155 -1.665871 2.712874 2.124140 -1.879716 2.442055 2.549229 -2.290634 -0.024029 5.478401 -23.956236 -11.016773 2.391741 -17.939407 -8.051990 -16.429875 11.004371 1.378348 -68.528904 -0.973054 14.479511 121.581732 -63.892421 -97.972076 -4.180464 -9.485035 -47.449753 -12.700375 2.027896 -10.235761 2.024989 -0.279480 -8.915727 36.017353 22.025355 -7.469262 -100.224505 24.418016 -106.954938 -5.492535 5.676839 -74.658051 10.838007 0.169499 0.891425 
0.128998 0.006003 -0.034032 172.871725 34.900186 -13.179892 0.996578 -0.400590 4.219176 -1.993693 -4.310219 -4.583697 -7.176762 5.892209 -3.325995 13.424790 7.469393 -8.568696 0.250980 2.402918 1.475228 3.694350 1.293295 -2.646904 8.518069 -0.537277 -4.596918 -11.719158 -6.332983 4.254956 5.163329 -2.083063 2.499676 2.653010 -2.078053 2.538894 2.849727 -2.703658 0.692191 4.507060 -18.846451 -8.346610 0.133643 -12.902791 -3.526142 -16.785796 10.840406 1.495796 -69.193172 -2.617450 15.082899 121.220892 -64.168014 -98.693515 -2.477866 -8.637779 -47.542476 -12.950250 1.843042 -9.791152 3.525079 -1.989958 -7.723817 38.113479 20.088812 -4.684537 -99.608358 27.314995 -106.990775 -5.871487 5.248037 -76.774918 11.254647 0.078829 0.628787 
0.130613 0.005917 -0.036527 173.406362 34.222809 -12.707075 0.646938 -0.246994 3.727100 -1.898237 -3.545427 -4.173694 -8.010122 5.806330 -3.248738 14.745152 7.778966 -8.913400 0.032514 2.431149 0.875261 3.443370 1.123899 -2.292206 9.825208 0.571794 -3.972932 -13.354542 -7.333241 2.658468 5.666243 -2.166334 3.328495 2.946278 -2.632299 3.470249 3.654587 -2.649224 0.654759 0.622335 -9.639843 -10.132719 -2.459134 -4.397367 -9.881825 -15.477657 9.540824 1.801216 -71.196580 -1.805738 15.005757 123.459456 -63.950832 -100.806298 -2.124748 -8.909240 -48.820861 -13.137253 1.318048 -9.486754 3.552225 -2.875724 -6.663349 43.106901 19.166429 -2.252104 -102.200601 27.284193 -108.117818 -5.142737 5.365449 -76.386216 12.379296 0.758433 -0.596810 
0.134657 0.005551 -0.037747 172.783482 36.716605 -12.328659 0.758800 -0.872374 2.714434 -1.577256 -4.190373 -4.775581 -10.027765 5.630501 -2.344024 17.708442 7.203341 -10.115570 0.058764 1.357513 0.240848 3.300639 0.714382 -2.768407 13.223255 -0.944897 -3.542027 -19.386554 -4.840064 0.209833 5.189103 -2.103190 3.205074 3.106382 -3.492540 2.747112 4.307848 -2.948949 1.740688 -4.604121 0.676122 -12.878889 -6.123476 2.406991 -11.621742 -11.218423 8.155538 2.448916 -74.329798 -1.980028 15.438757 126.273081 -65.635407 -103.849310 3.247849 -5.567127 -53.177312 -13.725095 -0.137231 -8.039671 3.216066 -4.324410 -5.332191 48.834792 17.745359 0.159353 -101.896723 28.169351 -106.395671 -11.450967 -0.282150 -71.987838 16.163758 2.574688 -3.625689 
0.139690 0.005547 -0.038549 171.538245 41.369973 -14.035040 0.963638 -1.901745 2.812197 -1.362489 -6.506243 -4.486534 -9.442397 4.447255 -1.345667 16.238989 9.033679 -11.887486 0.298413 -0.079689 1.362781 3.276136 -0.272234 -2.809105 13.728926 -3.096681 -4.023416 -20.447567 -2.377215 -1.609588 4.340615 -1.602805 3.629557 2.245637 -3.659697 2.408890 3.913129 -3.335573 2.807723 -7.388470 8.577924 -11.142894 -8.156892 8.185374 -11.298020 -9.624546 7.011564 2.197984 -74.198544 -6.580355 16.538267 129.819889 -67.175116 -107.426972 8.796097 -1.676240 -53.891350 -12.475192 -0.943782 -5.018307 4.107452 -6.600128 -3.426670 55.891719 12.296104 5.034019 -101.554705 33.592234 -103.683670 -19.208230 -5.891175 -67.988374 18.813081 4.267627 -4.911051 
0.143533 0.006599 -0.038138 170.582458 44.599341 -15.726041 1.067938 -2.798907 3.002645 -1.350803 -8.095207 -3.707706 -7.758426 3.112961 -1.068640 13.517941 11.301118 -12.824819 0.539507 -0.855192 2.383735 3.406576 -1.631869 -2.472180 11.709742 -3.778591 -4.608001 -17.158131 -2.164986 -1.718536 3.577529 -0.804889 4.083550 0.946065 -2.399625 3.161184 3.408288 -2.888909 2.730421 -7.341181 15.311048 -8.706545 -9.410598 15.423952 -10.260972 -12.906155 7.142091 1.833952 -74.168026 -9.601292 17.539454 128.404764 -66.458837 -106.457530 9.127168 -1.388487 -51.888760 -11.212152 -0.786977 -3.911445 7.103612 -7.837421 -0.925164 60.316055 7.561399 8.746824 -97.956749 38.966774 -100.923704 -16.716912 -5.302920 -72.202260 17.893436 3.713491 -3.917173 
0.145450 0.006229 -0.036438 169.614018 46.256115 -16.791032 1.604457 -3.239027 3.276380 -1.311083 -9.719808 -3.877875 -7.800650 3.146041 -1.172118 14.179750 11.333330 -13.278168 1.018511 -1.822569 3.327454 3.446999 -1.807334 -3.255151 11.627841 -4.387523 -4.238410 -16.261997 -2.597434 -2.666352 2.667404 0.208743 3.776179 0.037673 -1.032710 3.207604 3.728708 -2.036780 3.382320 -6.079814 22.776207 -6.885433 -10.125196 24.116627 -11.574876 -13.670849 8.603211 2.140972 -77.452385 -7.053338 20.126580 135.479236 -68.612609 -113.310995 18.937768 3.814976 -50.563876 -12.886453 -2.206116 -5.794886 7.353768 -8.427363 0.594246 63.873558 8.330089 10.426935 -85.070983 41.114418 -92.533840 -21.346352 -10.102512 -72.136501 19.207669 4.417854 -6.142818 
0.145442 0.006159 -0.035525 168.779810 48.308421 -17.650000 1.672505 -4.410055 3.307229 -1.343551 -11.005007 -3.906374 -7.240303 3.701171 -1.332243 13.907335 10.056304 -12.871122 1.066215 -2.603366 3.915780 3.634902 -2.248553 -3.562453 10.701103 -5.250946 -4.570528 -14.723716 -2.360987 -2.177987 2.045093 1.182092 3.326526 -0.412648 0.119082 3.262131 3.517067 -1.253389 3.711388 -5.289437 22.497473 -5.171884 -8.835733 24.651427 -11.460269 -14.370509 10.437983 2.316862 -78.135652 -4.606404 22.334709 145.395884 -69.901915 -125.684338 19.308652 7.507696 -59.395931 -13.325177 -2.566971 -3.785680 8.205935 -8.893484 1.471980 64.445512 7.593557 12.039210 -79.076385 43.726214 -88.937660 -20.780766 -11.291227 -73.414364 19.206486 4.954949 -6.494226 
0.146038 0.006449 -0.035307 168.620047 49.388476 -18.825989 1.544956 -4.615562 4.162863 -1.558441 -11.949603 -3.680672 -5.063939 2.692063 -1.048073 10.138261 12.421069 -13.436211 1.014840 -2.990712 4.944003 3.621134 -3.050172 -3.304124 7.809905 -4.749955 -4.455526 -9.240953 -3.524661 -2.049730 2.189771 1.847986 3.645754 -1.462174 1.859589 3.478398 2.902571 -0.310988 3.737947 -2.091403 21.797714 -1.154246 -7.697923 25.829703 -10.688504 -16.534782 12.582870 0.254146 -77.210832 -8.182414 21.570349 141.467020 -64.706518 -120.987396 21.878396 9.248332 -56.246062 -11.864518 -2.213107 -2.055931 9.267815 -9.441330 1.650654 66.262636 7.600346 13.861355 -78.644567 45.509729 -87.109977 -21.665231 -11.907696 -72.930042 17.913100 4.465838 -4.727094 
0.147071 0.006499 -0.034225 168.898520 49.124432 -19.009649 1.630858 -4.200469 4.609176 -1.607091 -12.479552 -3.714127 -4.556345 2.052981 -0.885167 8.770093 14.262605 -14.047051 1.022891 -3.286341 5.643081 3.648026 -3.493763 -3.735105 6.758323 -3.667454 -3.866789 -6.560146 -4.778684 -2.714244 2.435553 2.093544 4.126434 -2.328328 2.812106 3.447945 3.020054 0.430668 3.497792 -1.581203 24.039506 0.112087 -7.838725 29.546645 -10.954903 -16.320390 11.710543 -1.384149 -75.625664 -12.529686 20.037514 141.130293 -53.279806 -118.177842 32.972438 11.131427 -44.868442 -11.671988 -1.816791 -2.827387 8.986148 -7.980381 2.031975 68.459341 7.457340 14.742934 -78.456402 46.890971 -86.010280 -23.726261 -13.074734 -73.721253 16.177104 3.321365 -3.507619 
0.148339 0.006428 -0.033507 168.943368 48.974720 -18.354372 1.832988 -4.066343 3.921234 -1.624969 -12.201795 -3.806006 -5.001460 1.356483 -0.371546 8.719216 16.187977 -15.225033 1.213034 -2.932050 4.936405 3.544261 -4.442488 -3.789267 6.783171 -2.560708 -3.181431 -5.858248 -6.299345 -3.491217 2.629401 1.854166 4.806401 -3.016377 3.675745 2.682846 3.154587 0.917208 2.942759 -2.839003 25.172106 -1.986774 -8.633666 30.137485 -11.617145 -14.417006 11.633310 -2.554086 -74.162123 -16.482516 19.141506 149.998346 -40.621110 -120.761812 36.263156 6.377873 -35.533511 -9.516922 -0.263831 -3.188493 8.100202 -7.037505 2.448737 70.979889 6.223364 14.962972 -78.058605 47.547436 -84.099791 -21.818985 -11.336510 -75.383597 13.184371 1.398323 -1.941399 
0.147302 0.005995 -0.032614 169.104920 48.838297 -17.712278 1.803289 -3.259434 3.356171 -1.520592 -12.267925 -3.627898 -4.757374 -0.135260 0.159990 7.301124 18.809387 -17.094782 1.256449 -2.688161 4.723413 3.431782 -5.346235 -4.216043 6.327831 -1.275694 -2.544482 -3.695767 -8.417406 -4.054405 3.047858 1.697030 5.188309 -3.640221 4.452598 1.414933 3.143520 1.131375 2.440403 -2.754626 25.858792 -2.359422 -9.543557 30.414291 -10.418190 -13.612191 11.302616 -4.258305 -72.762873 -21.625157 18.428701 156.605227 -35.990981 -117.875511 37.983744 -3.623732 -17.444695 -7.908677 1.490045 -6.855355 7.342554 -6.933980 2.713868 72.528292 4.276175 14.247660 -76.840554 48.793269 -80.483393 -19.875690 -8.596454 -78.135077 10.436199 -0.800169 -0.599192 
0.145750 0.005494 -0.031645 169.377114 48.933472 -17.475909 1.632809 -2.942065 3.483987 -1.513171 -12.613632 -3.647877 -5.001424 -0.250960 0.341163 7.316816 19.218865 -17.548851 1.150087 -2.569031 4.841262 3.235186 -5.261626 -4.213987 7.055663 -1.677149 -2.633724 -4.905332 -7.873667 -4.299003 3.202240 1.855041 5.311265 -3.778635 4.383963 0.815449 2.922301 1.312717 2.262534 -3.339924 25.770686 -2.996092 -8.827077 29.239051 -8.914614 -12.083293 9.268761 -4.895954 -68.990511 -24.654764 16.799572 154.375127 -37.143647 -114.860647 36.696192 -7.544387 -11.197991 -7.377861 2.235721 -7.885085 6.707327 -6.272595 3.035223 72.999992 1.366856 13.647417 -76.296846 49.976488 -79.000223 -18.896601 -6.715938 -79.468621 9.505499 -1.498173 -0.200153 
